<?xml version="1.0" encoding="UTF-8" standalone="no"?>
<!-- Created with Inkscape (http://www.inkscape.org/) -->

<svg
   xmlns:osb="http://www.openswatchbook.org/uri/2009/osb"
   xmlns:dc="http://purl.org/dc/elements/1.1/"
   xmlns:cc="http://creativecommons.org/ns#"
   xmlns:rdf="http://www.w3.org/1999/02/22-rdf-syntax-ns#"
   xmlns:svg="http://www.w3.org/2000/svg"
   xmlns="http://www.w3.org/2000/svg"
   xmlns:xlink="http://www.w3.org/1999/xlink"
   xmlns:sodipodi="http://sodipodi.sourceforge.net/DTD/sodipodi-0.dtd"
   xmlns:inkscape="http://www.inkscape.org/namespaces/inkscape"
   width="123.71694mm"
   height="52.126701mm"
   viewBox="0 0 438.36712 184.70091"
   id="svg2"
   version="1.1"
   inkscape:version="0.91 r13725"
   sodipodi:docname="logo.svg"
   inkscape:export-filename="/home/sbristow/drawing.svg.png"
   inkscape:export-xdpi="90"
   inkscape:export-ydpi="90">
  <defs
     id="defs4">
    <linearGradient
       id="linearGradient6127"
       osb:paint="solid">
      <stop
         style="stop-color:#bda033;stop-opacity:1;"
         offset="0"
         id="stop6129" />
    </linearGradient>
    <linearGradient
       id="linearGradient6103"
       osb:paint="solid">
      <stop
         style="stop-color:#000000;stop-opacity:1;"
         offset="0"
         id="stop6105" />
    </linearGradient>
    <linearGradient
       inkscape:collect="always"
       xlink:href="#linearGradient6103"
       id="linearGradient6131"
       x1="149.30614"
       y1="417.67511"
       x2="516.61206"
       y2="417.67511"
       gradientUnits="userSpaceOnUse"
       gradientTransform="translate(76.923881,-0.556349)" />
    <filter
       style="color-interpolation-filters:sRGB"
       inkscape:label="Drop Shadow"
       id="filter6805">
      <feFlood
         flood-opacity="0.627451"
         flood-color="rgb(0,0,0)"
         result="flood"
         id="feFlood6807" />
      <feComposite
         in="flood"
         in2="SourceGraphic"
         operator="in"
         result="composite1"
         id="feComposite6809" />
      <feGaussianBlur
         in="composite1"
         stdDeviation="1"
         result="blur"
         id="feGaussianBlur6811" />
      <feOffset
         dx="1"
         dy="1"
         result="offset"
         id="feOffset6813" />
      <feComposite
         in="SourceGraphic"
         in2="offset"
         operator="over"
         result="composite2"
         id="feComposite6815" />
    </filter>
    <filter
       style="color-interpolation-filters:sRGB"
       inkscape:label="Drop Shadow"
       id="filter6817">
      <feFlood
         flood-opacity="0.627451"
         flood-color="rgb(0,0,0)"
         result="flood"
         id="feFlood6819" />
      <feComposite
         in="flood"
         in2="SourceGraphic"
         operator="in"
         result="composite1"
         id="feComposite6821" />
      <feGaussianBlur
         in="composite1"
         stdDeviation="1"
         result="blur"
         id="feGaussianBlur6823" />
      <feOffset
         dx="1"
         dy="1"
         result="offset"
         id="feOffset6825" />
      <feComposite
         in="SourceGraphic"
         in2="offset"
         operator="over"
         result="composite2"
         id="feComposite6827" />
    </filter>
    <filter
       style="color-interpolation-filters:sRGB"
       inkscape:label="Drop Shadow"
       id="filter6829">
      <feFlood
         flood-opacity="0.627451"
         flood-color="rgb(0,0,0)"
         result="flood"
         id="feFlood6831" />
      <feComposite
         in="flood"
         in2="SourceGraphic"
         operator="in"
         result="composite1"
         id="feComposite6833" />
      <feGaussianBlur
         in="composite1"
         stdDeviation="1"
         result="blur"
         id="feGaussianBlur6835" />
      <feOffset
         dx="1"
         dy="1"
         result="offset"
         id="feOffset6837" />
      <feComposite
         in="SourceGraphic"
         in2="offset"
         operator="over"
         result="composite2"
         id="feComposite6839" />
    </filter>
    <filter
       style="color-interpolation-filters:sRGB"
       inkscape:label="Drop Shadow"
       id="filter6841">
      <feFlood
         flood-opacity="0.627451"
         flood-color="rgb(0,0,0)"
         result="flood"
         id="feFlood6843" />
      <feComposite
         in="flood"
         in2="SourceGraphic"
         operator="in"
         result="composite1"
         id="feComposite6845" />
      <feGaussianBlur
         in="composite1"
         stdDeviation="1"
         result="blur"
         id="feGaussianBlur6847" />
      <feOffset
         dx="1"
         dy="1"
         result="offset"
         id="feOffset6849" />
      <feComposite
         in="SourceGraphic"
         in2="offset"
         operator="over"
         result="composite2"
         id="feComposite6851" />
    </filter>
    <filter
       style="color-interpolation-filters:sRGB"
       inkscape:label="Drop Shadow"
       id="filter6853">
      <feFlood
         flood-opacity="0.627451"
         flood-color="rgb(0,0,0)"
         result="flood"
         id="feFlood6855" />
      <feComposite
         in="flood"
         in2="SourceGraphic"
         operator="in"
         result="composite1"
         id="feComposite6857" />
      <feGaussianBlur
         in="composite1"
         stdDeviation="1"
         result="blur"
         id="feGaussianBlur6859" />
      <feOffset
         dx="1"
         dy="1"
         result="offset"
         id="feOffset6861" />
      <feComposite
         in="SourceGraphic"
         in2="offset"
         operator="over"
         result="composite2"
         id="feComposite6863" />
    </filter>
  </defs>
  <sodipodi:namedview
     id="base"
     pagecolor="#ffffff"
     bordercolor="#666666"
     borderopacity="1.0"
     inkscape:pageopacity="0"
     inkscape:pageshadow="2"
     inkscape:zoom="2"
     inkscape:cx="199.67174"
     inkscape:cy="7.8953535"
     inkscape:document-units="px"
     inkscape:current-layer="layer1"
     showgrid="false"
     inkscape:window-width="1855"
     inkscape:window-height="1056"
     inkscape:window-x="65"
     inkscape:window-y="24"
     inkscape:window-maximized="1"
     fit-margin-top="0"
     fit-margin-left="0"
     fit-margin-right="0"
     fit-margin-bottom="0" />
  <metadata
     id="metadata7">
    <rdf:RDF>
      <cc:Work
         rdf:about="">
        <dc:format>image/svg+xml</dc:format>
        <dc:type
           rdf:resource="http://purl.org/dc/dcmitype/StillImage" />
        <dc:title></dc:title>
      </cc:Work>
    </rdf:RDF>
  </metadata>
  <g
     inkscape:label="Layer 1"
     inkscape:groupmode="layer"
     id="layer1"
     style="display:inline"
     transform="translate(-198.69943,-274.17038)">
    <path
       style="fill:#b3b3b3"
       d="m 410.58745,405.14257 c -0.43354,-0.23522 -1.04516,-0.93125 -1.35917,-1.54674 -0.51962,-1.01856 -0.7197,-1.14888 -2.22745,-1.45086 -4.34324,-0.86987 -8.99417,-2.29173 -12.7815,-3.90752 -2.15697,-0.92022 -2.25243,-0.93478 -3.28926,-0.50157 -2.18072,0.91117 -4.41539,-0.29442 -5.0237,-2.71025 -0.20595,-0.81787 -0.57158,-1.40792 -1.06466,-1.71811 -4.07299,-2.56219 -10.78214,-8.47514 -13.17176,-11.60861 -1.02885,-1.34911 -1.08754,-1.38019 -2.60697,-1.38019 -1.4227,0 -1.64892,-0.0945 -2.66948,-1.11505 -1.34204,-1.34204 -1.58542,-3.17291 -0.65981,-4.96339 0.36569,-0.70737 0.29669,-0.98796 -0.91516,-3.72117 -0.72087,-1.62586 -1.7385,-4.44808 -2.2614,-6.2716 -1.64579,-5.73937 -1.95358,-8.07793 -2.03762,-15.48189 l -0.0761,-6.7094 -0.86977,-0.52895 c -1.7612,-1.07104 -2.47424,-3.29277 -1.67256,-5.21145 0.50856,-1.21716 1.54494,-1.98013 3.01406,-2.21893 l 1.04418,-0.16973 1.47594,-4.40619 c 2.74311,-8.18917 6.13174,-14.07031 12.00089,-20.8282 l 1.39775,-1.60941 -0.49708,-1.04752 c -1.68815,-3.5575 2.22871,-7.28914 5.53501,-5.27329 0.51721,0.31534 1.06287,0.57335 1.21258,0.57335 0.14972,0 1.47136,-0.78872 2.93697,-1.75272 6.61448,-4.35063 15.28952,-7.35647 22.80207,-7.90075 2.14084,-0.1551 2.75701,-0.31791 3.82218,-1.00992 1.75672,-1.14131 2.8796,-1.06148 4.47432,0.31811 0.40721,0.35228 1.53586,0.59604 3.87733,0.83741 6.25325,0.64462 15.51632,3.01124 19.25851,4.92037 1.33207,0.67957 1.67941,0.69693 2.75205,0.13751 1.12327,-0.58582 2.36717,-0.53942 3.46375,0.1292 1.16502,0.71036 1.72297,1.58663 1.90157,2.98644 0.0777,0.60882 0.25056,1.19974 0.38418,1.31315 0.13362,0.11341 0.82454,0.64562 1.53539,1.18269 4.25575,3.21538 8.21713,7.43423 11.51703,12.26559 1.5756,2.30683 2.15461,2.94391 2.67559,2.94391 1.72079,0 2.95525,2.16232 2.30697,4.04096 -0.3207,0.92936 -0.27435,1.21144 0.49551,3.01571 2.20194,5.1605 3.87546,11.63294 4.5619,17.64341 0.34045,2.98091 0.35718,3.02667 1.45006,3.96597 1.53152,1.3163 1.94398,2.76151 1.28247,4.49365 -0.29777,0.77968 -0.85973,1.54937 -1.40688,1.92691 -0.50109,0.34575 -0.96237,0.66796 -1.02509,0.71602 -0.0627,0.0481 -0.28297,1.39196 -0.48946,2.98647 -0.2065,1.59451 -0.72163,4.30047 -1.14476,6.01326 l -0.76931,3.11414 0.65172,1.05451 c 0.88023,1.42423 0.85173,2.996 -0.0798,4.4037 -0.70427,1.06422 -2.24419,2.05686 -3.19087,2.05686 -0.25531,0 -0.76576,0.61449 -1.16509,1.40253 -2.79635,5.51833 -9.268,13.10184 -14.59291,17.10005 -0.95973,0.72061 -1.07704,0.94675 -1.07704,2.07627 0,3.71288 -2.96202,5.69513 -6.1391,4.10841 l -1.31274,-0.65561 -2.80812,1.31146 c -6.32478,2.95383 -14.79371,4.81397 -21.91717,4.81397 -1.79568,0 -2.01089,0.0659 -2.57859,0.78983 -0.34066,0.43441 -0.89933,0.9468 -1.24149,1.13866 -0.85219,0.47787 -2.75411,0.43608 -3.70802,-0.0815 z m 18.16446,-5.15998 c 4.04264,-0.83244 8.7063,-2.32544 11.48842,-3.67784 l 1.86686,-0.90749 0.18702,-1.53234 c 0.13309,-1.09042 0.43801,-1.84467 1.05731,-2.61532 l 0.8703,-1.08297 -0.55332,-4.13412 c -0.86077,-6.43108 -0.91135,-6.57542 -2.30416,-6.57542 -0.6432,0 -2.08114,1.08609 -6.78608,5.12562 -3.28348,2.81908 -7.65013,6.70948 -9.70369,8.64531 -2.05355,1.93583 -4.8,4.37276 -6.10321,5.4154 -1.30322,1.04263 -2.36949,2.01895 -2.36949,2.16959 0,0.53076 8.52266,-0.0423 12.35004,-0.83042 z m -19.06102,-0.58278 c 0.52889,-0.80719 0.52416,-0.84059 -0.83225,-5.86942 -0.61438,-2.27778 -0.72812,-2.47418 -1.69823,-2.93242 -0.99742,-0.47115 -1.10815,-0.46679 -2.72039,0.10706 -0.92435,0.32901 -3.81317,1.13594 -6.4196,1.79318 -4.56241,1.15045 -4.74229,1.22337 -4.82812,1.95723 -0.064,0.54754 0.10418,0.88892 0.59722,1.21197 2.00592,1.31433 11.97489,4.40549 14.34844,4.44914 0.84411,0.0155 1.17242,-0.13601 1.55293,-0.71674 z m 10.91757,-4.86418 c 2.65683,-2.36949 6.06065,-5.47136 7.56406,-6.89304 1.50341,-1.4217 3.82125,-3.58657 5.15077,-4.81083 1.32952,-1.22426 2.35298,-2.29025 2.27437,-2.36887 -0.17563,-0.17563 -2.59648,0.64599 -9.14343,3.10322 -5.71038,2.14325 -8.98258,3.13555 -11.99913,3.63878 -2.00286,0.33412 -2.11365,0.39435 -2.64653,1.43889 -0.30589,0.59959 -0.91615,1.3537 -1.35615,1.67581 l -0.79999,0.58564 0.66242,1.91544 c 1.27388,3.6835 1.97886,5.00037 2.84069,5.30624 0.44277,0.15714 0.99891,0.41011 1.23586,0.56216 0.23695,0.15203 0.64583,0.24905 0.90864,0.21557 0.2628,-0.0335 2.65159,-1.99953 5.30842,-4.36901 z m -23.94565,-3.47881 c 1.93143,-0.57064 4.62907,-1.48351 5.99476,-2.0286 2.11822,-0.84546 2.50669,-1.10446 2.64385,-1.76278 0.12022,-0.57704 -0.007,-0.9166 -0.50308,-1.34612 -1.13996,-0.9864 -9.44387,-6.75594 -13.29557,-9.23775 -4.86163,-3.13253 -5.80314,-3.14979 -4.55928,-0.0836 0.34956,0.86167 1.38286,4.34542 2.29622,7.74169 1.50812,5.60778 1.74365,6.2465 2.56399,6.95317 0.49683,0.42799 1.00325,0.78341 1.12538,0.78983 0.12213,0.007 1.80231,-0.45522 3.73373,-1.02585 z m -9.11854,-0.0395 c 1.00508,-0.48768 1.03164,-0.54149 0.89367,-1.81025 -0.1588,-1.46033 -1.89912,-8.84337 -2.78906,-11.83224 -0.46264,-1.55373 -0.69117,-1.93867 -1.15095,-1.93867 -0.31554,0 -1.05322,-0.24282 -1.6393,-0.53958 -1.05021,-0.5318 -1.11955,-0.53032 -4.80258,0.10249 -5.06015,0.86941 -4.90122,0.79897 -5.29053,2.34509 -0.27659,1.09842 -0.25776,1.42701 0.11428,1.99482 1.00175,1.52886 4.41615,5.19149 6.73216,7.22159 2.45872,2.1552 6.22791,4.95936 6.66608,4.95936 0.12669,0 0.6965,-0.22617 1.26623,-0.50261 z m 63.96168,-1.85702 c 4.84921,-4.14272 8.82286,-8.93055 11.83038,-14.25435 1.07649,-1.90556 1.22662,-2.47348 0.73431,-2.77773 -0.16244,-0.1004 -2.77965,0.46792 -5.81601,1.26293 -5.44128,1.42468 -9.34281,2.23658 -11.50881,2.39498 -0.99793,0.073 -1.14207,0.18755 -1.48054,1.17689 -0.20624,0.60283 -0.59182,1.33566 -0.85684,1.62851 -0.4519,0.49934 -0.44261,0.69908 0.14945,3.2121 1.946,8.26 1.77791,7.78871 3.02175,8.47251 0.62336,0.34269 1.29162,0.63349 1.48502,0.64622 0.19341,0.0127 1.29199,-0.78019 2.44129,-1.76206 z m -33.81163,-4.37632 c 1.57965,-0.53053 5.45699,-2.05713 8.61631,-3.39246 5.56846,-2.35359 8.82117,-3.57322 11.2028,-4.20059 1.03002,-0.27134 1.2029,-0.45073 1.65146,-1.71368 0.27556,-0.77585 0.50102,-1.54312 0.50102,-1.70505 0,-0.5879 -7.96337,-9.62265 -8.74639,-9.92312 -0.40186,-0.15421 -3.34703,1.19061 -3.65032,1.6668 -1.10222,1.73059 -10.2382,14.85807 -11.2299,16.13623 -0.71792,0.92528 -1.83474,2.19323 -2.48183,2.81766 -0.6471,0.62443 -1.17654,1.25486 -1.17654,1.40096 0,0.41467 2.15562,-0.0263 5.31339,-1.08675 z m -3.92755,-3.25466 c 2.20835,-2.84226 4.92949,-6.84529 9.90764,-14.57497 2.27035,-3.52524 2.24856,-3.86823 -0.24573,-3.86823 -1.71645,0 -12.30825,-1.74759 -15.75438,-2.59938 -1.24593,-0.30796 -2.34721,-0.55994 -2.44728,-0.55994 -0.10007,0 -0.4853,0.55532 -0.85606,1.23403 l -0.67412,1.23403 1.01599,2.71511 c 1.89738,5.07055 3.47314,11.23594 4.64332,18.16779 0.17939,1.0626 0.9947,1.74266 1.73233,1.44493 0.15797,-0.0637 1.3632,-1.50077 2.67829,-3.19337 z m -5.86971,2.57509 c 0.08,-0.12939 -0.15286,-1.20195 -0.5174,-2.38347 -0.36453,-1.18152 -1.53105,-5.69615 -2.59226,-10.03251 -1.0612,-4.33636 -2.04579,-8.17509 -2.18799,-8.53051 -0.33148,-0.82858 -1.99633,-0.88638 -3.0986,-0.1076 -0.4193,0.29625 -1.86095,1.08644 -3.20365,1.756 -1.34271,0.66955 -3.53987,2.02485 -4.88258,3.01177 -1.34271,0.98692 -2.80344,2.02542 -3.24606,2.30777 -1.19574,0.76277 -0.97671,1.84328 0.51756,2.55316 0.90532,0.43009 11.23253,7.05092 17.08902,10.95586 1.04071,0.69393 1.86989,0.8774 2.12196,0.46953 z m 45.28911,-11.50946 c 8.74473,-2.19769 9.45655,-2.42399 9.45655,-3.00651 0,-0.22272 0.21634,-1.07477 0.48074,-1.89346 l 0.48074,-1.4885 -1.0966,-2.0628 c -1.96561,-3.69749 -3.09474,-5.46592 -5.21952,-8.17474 -1.1499,-1.46599 -2.17903,-2.6938 -2.28697,-2.7285 -0.10792,-0.0347 -0.66692,1.10013 -1.24221,2.52181 -0.57528,1.4217 -2.88965,6.06085 -5.14302,10.30923 -3.69285,6.9623 -4.33655,8.50305 -3.55241,8.50305 0.13519,0 3.7904,-0.89081 8.1227,-1.97958 z m -76.53699,0.65617 c 3.8159,-0.77083 4.71304,-1.07002 4.71304,-1.57177 0,-0.15954 -0.62736,-1.22126 -1.39414,-2.35938 -0.76678,-1.13811 -2.52877,-4.00797 -3.91555,-6.37746 -11.9449,-20.40941 -12.4188,-21.18374 -12.87268,-21.03352 -0.79219,0.2622 -0.89195,7.75219 -0.17494,13.13524 0.68327,5.12986 2.39083,11.05276 4.36307,15.13388 0.84636,1.75138 1.04194,1.96458 1.93898,2.11372 1.15343,0.19177 2.03717,0.62662 2.56431,1.26178 0.4767,0.5744 0.41881,0.57807 4.77791,-0.30249 z m 67.32518,-1.9077 c 0.35843,-0.98729 1.65537,-3.73374 2.88208,-6.10323 2.55611,-4.93733 5.81312,-12.42036 5.57423,-12.80688 -0.36315,-0.58758 -1.70752,-0.15129 -6.1887,2.00844 -2.59007,1.24829 -7.07878,3.20471 -9.97494,4.3476 -2.89615,1.14289 -5.32401,2.22983 -5.39523,2.41543 -0.16764,0.43687 11.37484,11.92442 11.98673,11.92969 0.30975,0.003 0.68091,-0.5931 1.11583,-1.79105 z m -55.03865,-4.05923 c 3.00598,-2.43066 4.91336,-3.68423 7.86406,-5.1684 1.85715,-0.93413 2.08228,-1.13639 2.08228,-1.87079 0,-0.63568 -0.31104,-1.07548 -1.36425,-1.92898 -0.75034,-0.60806 -2.99181,-2.60485 -4.98105,-4.43732 -1.98924,-1.83246 -4.05919,-3.66918 -4.59989,-4.0816 -0.96341,-0.73482 -1.00959,-0.74112 -2.30561,-0.31445 l -1.32251,0.43539 -0.20897,6.15617 c -0.25902,7.63106 -5.7e-4,12.64695 0.67193,13.03977 0.93013,0.54333 1.58516,0.25549 4.16401,-1.82979 z m -6.83589,-3.69545 c -0.0108,-2.88287 0.16155,-7.21193 0.38292,-9.62012 l 0.40249,-4.37852 -0.74183,-0.68751 c -0.40801,-0.37814 -0.88171,-1.20699 -1.05268,-1.84191 -0.28684,-1.06524 -0.44919,-1.20895 -2.10195,-1.86078 -0.9851,-0.3885 -4.47256,-1.82992 -7.74991,-3.20314 -3.27735,-1.37323 -6.08842,-2.41668 -6.24682,-2.31877 -0.59477,0.36758 -0.21,1.24746 2.08852,4.77592 1.29934,1.99463 5.1412,8.28832 8.53745,13.98599 3.39626,5.69765 6.24845,10.36636 6.33821,10.3749 0.0898,0.009 0.15437,-2.34319 0.1436,-5.22606 z m 85.33661,1.28164 c 0.64022,-0.40706 2.38515,-7.95483 2.38616,-10.32139 2.8e-4,-0.71975 -0.17556,-1.01725 -0.78944,-1.33538 -0.43441,-0.22512 -1.14625,-0.81004 -1.58187,-1.29982 -0.51947,-0.58404 -1.0631,-0.89154 -1.57966,-0.89352 -0.71209,-0.003 -6.2549,-1.06913 -8.16801,-1.57147 -0.69541,-0.1826 -0.81996,-0.0947 -1.21874,0.85967 -0.51602,1.23501 -0.56928,1.11855 1.71062,3.74042 1.98607,2.28396 3.50401,4.46214 5.29713,7.60117 1.96704,3.44348 1.96983,3.4469 2.81865,3.44213 0.43077,-0.002 0.93709,-0.10223 1.12516,-0.22181 z m -41.74302,-4.54246 c 0.35523,-0.48757 0.48578,-1.03255 0.39345,-1.64244 -0.98113,-6.48119 -1.85899,-11.20729 -2.80055,-15.07718 -0.62713,-2.57757 -1.14023,-4.91159 -1.14023,-5.18669 0,-0.72734 -0.61252,-1.41493 -1.43606,-1.61206 -0.63494,-0.15199 -0.98388,0.15257 -3.0157,2.63214 -3.45419,4.21537 -6.29572,7.93739 -8.63015,11.30431 -1.15379,1.66409 -2.68895,3.78691 -3.41146,4.71737 -1.47721,1.90235 -1.6001,2.37841 -0.66745,2.58554 2.2565,0.50114 11.0119,1.934 14.14511,2.31491 2.05355,0.24965 3.86298,0.50174 4.02094,0.56019 0.93345,0.34544 2.04624,0.0845 2.5421,-0.59609 z m 5.62944,-1.25563 c 0.61161,-0.31202 2.12508,-0.96025 3.36329,-1.44052 2.73416,-1.06051 15.27775,-7.24109 15.30201,-7.53973 0.01,-0.11726 -1.24281,-0.80016 -2.78298,-1.51755 -1.54016,-0.71739 -7.23117,-3.97398 -12.64668,-7.23684 l -9.84638,-5.9325 -0.61119,0.61118 -0.61118,0.61119 0.60246,1.83523 c 0.33136,1.00936 0.94504,3.50526 1.36375,5.54642 0.4187,2.04116 1.12635,5.21234 1.57255,7.04708 0.4462,1.83473 0.97508,4.35501 1.17529,5.6006 0.20021,1.24559 0.48589,2.42628 0.63485,2.62373 0.38699,0.51302 1.20473,0.44446 2.48421,-0.20829 z m -29.46327,-2.59201 c 0.56193,0 1.05086,-0.48987 2.36493,-2.36948 2.50637,-3.58505 10.7176,-14.46821 12.71918,-16.85802 0.97209,-1.16063 1.71192,-2.16573 1.64409,-2.23356 -0.0678,-0.0678 -1.04016,0.27905 -2.16071,0.77087 -1.12055,0.49181 -4.78344,1.91119 -8.13974,3.15418 -3.3563,1.24299 -7.99956,2.98427 -10.31834,3.86953 -2.31879,0.88526 -5.46393,1.96031 -6.98921,2.38903 -3.48723,0.98016 -4.13494,1.8738 -2.19057,3.02236 0.44173,0.26094 1.94941,1.48192 3.35042,2.7133 7.54195,6.62883 7.2794,6.43753 8.1894,5.96696 0.45219,-0.23384 1.14094,-0.42517 1.53055,-0.42517 z m 65.284,-8.76126 c 0.34294,-0.60804 1.08729,-1.38543 1.65412,-1.72753 0.56683,-0.3421 1.09872,-0.69011 1.18197,-0.77336 0.25518,-0.25518 -0.44151,-5.35635 -1.20171,-8.79899 -1.12151,-5.07883 -3.83416,-12.53722 -4.55985,-12.53722 -0.15562,0 -0.46032,0.5816 -0.67711,1.29244 -0.21679,0.71085 -1.39408,4.00659 -2.6162,7.32387 -1.22213,3.31727 -2.85113,7.87158 -3.62001,10.12067 -1.26752,3.7077 -1.35608,4.13114 -0.94917,4.53806 0.29677,0.29677 1.99698,0.67655 5.01941,1.12118 2.51384,0.36982 4.69986,0.64406 4.85782,0.60941 0.15797,-0.0347 0.56779,-0.56049 0.91073,-1.16853 z m -15.60094,-1.24416 c 0.48854,-0.53984 0.50308,-0.83963 0.20669,-4.26295 -0.47279,-5.46096 -1.75091,-13.92892 -2.21393,-14.66808 -0.22264,-0.35543 -0.64125,-0.64623 -0.93024,-0.64623 -0.28899,0 -1.91013,0.65316 -3.60254,1.45147 -2.68906,1.26842 -12.69221,4.80382 -16.17891,5.71807 -0.67135,0.17605 -1.22064,0.44216 -1.22064,0.59137 0,0.14922 0.67854,0.61191 1.50785,1.02822 0.82933,0.4163 3.67224,2.17251 6.31759,3.9027 5.35278,3.50097 14.40454,8.0998 15.15359,7.69892 0.23927,-0.12805 0.67151,-0.49413 0.96054,-0.81349 z m 3.78299,-2.84011 c 0.28756,-1.06233 1.90187,-6.10288 3.58736,-11.2012 1.6855,-5.09832 2.93182,-9.26968 2.76961,-9.26968 -0.16221,0 -2.15732,0.41782 -4.43357,0.92848 -3.77765,0.84751 -4.1737,0.9963 -4.54062,1.70583 -0.22109,0.42754 -0.68712,0.97707 -1.03563,1.22118 l -0.63366,0.44382 0.63625,2.66112 c 0.80804,3.37969 2.35104,12.55287 2.35104,13.97701 0,1.04456 0.16636,1.46496 0.57967,1.46496 0.10819,0 0.43199,-0.86918 0.71955,-1.93152 z m -60.51108,-1.8325 c 3.73779,-1.28039 9.44551,-3.46301 12.6838,-4.85027 4.87704,-2.08928 7.66677,-3.13799 11.1294,-4.18371 0.39495,-0.11929 0.50203,-0.98809 0.12178,-0.98809 -0.13048,0 -1.90759,-1.56101 -3.94914,-3.46892 -2.04155,-1.90791 -5.17463,-4.70855 -6.96241,-6.22365 -4.09793,-3.47289 -4.11993,-3.47062 -6.32179,0.65207 -0.84172,1.57601 -2.40307,4.0933 -3.46968,5.59398 -1.06661,1.50067 -2.99588,4.21481 -4.28727,6.03141 -1.29139,1.81661 -3.32293,4.62973 -4.51454,6.25137 -1.98045,2.69518 -2.33495,3.51378 -1.52166,3.51378 0.16254,0 3.35371,-1.04758 7.09151,-2.32797 z m -12.56849,1.44413 c 0.38518,-0.38518 0.52399,-0.76688 0.39167,-1.07703 -0.6348,-1.48801 -1.39211,-4.82338 -2.15755,-9.50248 -0.47581,-2.90859 -0.93199,-5.39655 -1.01372,-5.5288 -0.29705,-0.48065 -0.75952,-0.19714 -3.64253,2.23305 -2.63861,2.22416 -7.24084,5.45345 -9.67376,6.78787 -1.45847,0.79995 -1.05608,1.36769 1.71567,2.4207 1.34133,0.50959 4.76519,1.89283 7.60857,3.07386 2.84338,1.18104 5.39596,2.15682 5.6724,2.1684 0.27644,0.0116 0.7711,-0.24742 1.09925,-0.57557 z m 8.63228,-8.01968 c 4.79795,-7.10268 9.72697,-14.96941 9.72697,-15.52427 0,-0.47284 -0.84765,-0.30155 -3.58937,0.72535 -3.33927,1.2507 -7.44765,2.32564 -10.66823,2.79128 -2.42685,0.35089 -2.49216,0.38101 -2.88977,1.33262 -0.22374,0.5355 -0.81191,1.34364 -1.30705,1.79587 l -0.90025,0.82225 0.63431,2.5206 c 0.34886,1.38632 1.07518,4.6929 1.61403,7.34795 0.96791,4.76908 1.3329,5.76067 2.05988,5.59634 0.20467,-0.0463 2.59844,-3.37986 5.31948,-7.40799 z m -24.11656,-1.18095 c 0.95647,-0.64952 3.66733,-2.78684 6.02414,-4.74958 l 4.28511,-3.56863 -0.18304,-1.37985 c -0.21198,-1.59796 0.28306,-2.8285 1.44384,-3.58907 l 0.73271,-0.48009 0,-5.84602 c 0,-7.4616 -0.0508,-7.5404 -2.91962,-4.53193 -2.58512,2.71094 -5.01663,6.41927 -7.42354,11.3218 -2.06876,4.21373 -4.22593,10.23973 -4.50297,12.5789 -0.21603,1.82404 0.16362,1.86053 2.54337,0.24447 z m 64.71931,-2.80214 c 3.3169,-1.08494 8.32483,-2.97413 11.12872,-4.19819 4.45395,-1.94442 5.09798,-2.3079 5.09798,-2.87723 0,-0.74055 -1.67626,-1.82314 -7.65466,-4.94364 l -3.54314,-1.84938 -0.96905,1.02748 c -0.53297,0.56512 -1.17454,1.02749 -1.42569,1.02749 -0.42123,0 -9.38428,12.92831 -9.38428,13.53591 0,0.44156 0.61076,0.28571 6.75012,-1.72244 z m -6.91682,-2.14885 c 0.87383,-1.16105 2.94611,-3.82843 4.60508,-5.92751 l 3.0163,-3.81652 -0.78343,-0.92238 -0.78344,-0.92238 -10.62678,-0.22639 c -16.01701,-0.34123 -14.6178,-0.35925 -14.72826,0.18978 -0.0647,0.32142 0.49139,0.87985 1.67946,1.68665 1.70889,1.16049 3.76454,2.88155 10.89472,9.12147 4.28187,3.74723 4.50115,3.77388 6.72635,0.81728 z m 33.68775,-7.12049 c 1.45528,-0.46252 2.71642,-0.95496 2.80253,-1.0943 0.0861,-0.13935 0.22491,-0.81336 0.30844,-1.49782 0.14342,-1.17537 0.0436,-1.39569 -1.7973,-3.9689 -3.15869,-4.4151 -11.15132,-12.06688 -12.60438,-12.06688 -0.51189,0 -0.50914,0.78964 0.01,2.83064 0.22673,0.89161 0.68182,3.49795 1.01131,5.79186 0.32949,2.29391 0.88777,5.38349 1.24065,6.86574 l 0.64158,2.69499 1.43462,0.80739 c 1.73878,0.97858 2.92764,0.91655 6.95267,-0.36272 z m -67.22105,-1.82611 c 3.72216,-1.18474 6.93091,-2.15407 7.13055,-2.15407 0.5607,0 0.91218,-0.60559 1.11185,-1.91566 l 0.18253,-1.19763 -3.46936,-2.56688 c -3.99127,-2.95304 -7.28801,-4.97504 -9.99912,-6.1328 l -1.8967,-0.80998 -0.82906,1.01226 c -0.45599,0.55675 -1.31389,1.2596 -1.90645,1.56191 l -1.07739,0.54964 0.12169,1.94927 c 0.0669,1.0721 0.25763,3.68656 0.42378,5.80992 l 0.30207,3.86066 1.19547,1.08194 c 0.65751,0.59507 1.36357,1.08725 1.56902,1.09372 0.20545,0.007 3.41896,-0.95755 7.14112,-2.1423 z m 55.54209,-2.76294 c -0.31974,-1.6397 -0.7705,-5.14821 -1.00169,-7.79672 -0.2312,-2.6485 -0.48911,-4.92669 -0.57314,-5.06265 -0.20506,-0.3318 -2.70939,-0.94969 -3.03457,-0.74872 -0.41564,0.25688 -5.86893,8.53574 -6.28644,9.54369 -0.57871,1.39714 0.16433,2.19148 3.28476,3.51152 1.41394,0.59814 3.7883,1.68537 5.27637,2.41607 1.48806,0.7307 2.75293,1.28119 2.81081,1.22331 0.0579,-0.0579 -0.15636,-1.44681 -0.4761,-3.0865 z m -15.31027,-2.58595 c 0.43562,-0.49342 0.75855,-1.01393 0.71763,-1.15668 -0.15043,-0.52466 -6.40174,-7.95275 -9.39019,-11.15786 -1.6938,-1.8166 -3.68217,-4.04559 -4.41859,-4.9533 -1.02667,-1.26547 -1.5188,-1.65064 -2.11008,-1.65146 -1.66147,-0.002 -2.15006,0.42855 -2.82781,2.49369 -0.78634,2.39601 -5.21964,11.27082 -7.00343,14.01983 -1.11458,1.71769 -1.54024,2.6582 -1.24506,2.75109 0.0395,0.0125 5.11235,0.0899 11.273,0.17225 6.16067,0.0823 11.25506,0.20138 11.32088,0.26461 0.0658,0.0632 0.74335,0.11497 1.50563,0.11497 1.19164,0 1.49703,-0.1258 2.17802,-0.89714 z m -26.13035,-4.56031 c 2.63178,-4.28247 4.10331,-7.09716 5.8192,-11.13077 1.35973,-3.19637 1.4655,-3.59732 1.14987,-4.35932 -0.19118,-0.46154 -0.53897,-0.91261 -0.77286,-1.00236 -0.63703,-0.24445 -5.63232,0.36039 -8.56926,1.03759 -5.55995,1.282 -11.6684,3.84061 -16.32161,6.83655 -1.23657,0.79615 -2.2005,1.59099 -2.14205,1.76633 0.0584,0.17533 0.81189,0.53711 1.67433,0.80395 2.35254,0.72788 5.18527,2.32628 9.17825,5.17892 6.2374,4.45607 5.87923,4.25039 7.066,4.05749 0.98936,-0.16081 1.19694,-0.38762 2.91813,-3.18838 z m 29.977,0.20497 c 0.57427,-0.82333 2.16383,-2.83247 3.53235,-4.46475 l 2.4882,-2.96778 -0.18177,-1.34037 c -0.29801,-2.19765 -0.35001,-2.2629 -2.51546,-3.15704 -4.36704,-1.80319 -10.3659,-3.40118 -15.74912,-4.19527 -3.96909,-0.5855 -4.84572,-0.58254 -4.84572,0.0162 0,0.25663 2.3239,2.84406 5.16421,5.74985 5.47051,5.59665 9.19731,9.72504 9.98925,11.06568 0.26386,0.44668 0.61343,0.80725 0.77684,0.80125 0.16339,-0.006 0.76694,-0.68453 1.34122,-1.50785 z"
       id="path4294"
       inkscape:connector-curvature="0" />
    <path
       style="fill:#000000"
       d=""
       id="path4201"
       inkscape:connector-curvature="0" />
    <rect
       style="fill:#ff8080;fill-opacity:0.82352941;stroke:#000000;stroke-width:0.40000001;stroke-linecap:butt;stroke-linejoin:miter;stroke-miterlimit:4;stroke-dasharray:none;stroke-opacity:1;filter:url(#filter6841)"
       id="rect4443"
       width="25.455845"
       height="25.455845"
       x="453.47177"
       y="356.06128"
       rx="5"
       ry="5" />
    <rect
       style="display:inline;fill:#80ff80;fill-opacity:0.78431373;stroke:#000000;stroke-width:0.40000001;stroke-linecap:butt;stroke-linejoin:miter;stroke-miterlimit:4;stroke-dasharray:none;stroke-opacity:1;filter:url(#filter6805)"
       id="rect4443-6"
       width="36.062447"
       height="36.062447"
       x="337.88004"
       y="291.78741"
       rx="5.5"
       ry="5.5" />
    <rect
       style="display:inline;fill:#ffd42a;fill-opacity:0.78616351;stroke:#000000;stroke-width:0.40000001;stroke-linecap:butt;stroke-linejoin:miter;stroke-miterlimit:4;stroke-dasharray:none;stroke-opacity:1;filter:url(#filter6829)"
       id="rect4443-9"
       width="21.920311"
       height="21.920311"
       x="389.88614"
       y="348.37067"
       rx="3.5"
       ry="3.5" />
    <rect
       style="display:inline;fill:#00a6ff;fill-opacity:0.78431373;stroke:#000000;stroke-width:0.40000001;stroke-linecap:butt;stroke-linejoin:miter;stroke-miterlimit:4;stroke-dasharray:none;stroke-opacity:1;filter:url(#filter6817)"
       id="rect4443-1"
       width="31.819805"
       height="31.819805"
       x="430.83051"
       y="275.85236"
       inkscape:transform-center-x="15.90991"
       inkscape:transform-center-y="82.20117"
       rx="6.5"
       ry="6.5" />
    <path
       style="display:inline;fill:#00a6ff;fill-opacity:1;stroke:url(#linearGradient6131);stroke-width:1;stroke-linejoin:round;stroke-miterlimit:0.30000001;stroke-dasharray:none;stroke-opacity:1;filter:url(#filter6853)"
       d="m 231.24502,450.64253 c -3.02281,-1.47748 -4.015,-3.05714 -4.015,-6.39217 0,-3.38881 2.07138,-5.94029 4.82252,-5.94029 2.61042,0 3.17271,1.0939 1.90958,3.71493 -1.12904,2.34273 -0.52846,4.49493 1.57883,5.65788 2.48735,1.37271 6.47616,-0.34422 7.95577,-3.42448 1.47199,-3.06431 0.52633,-5.65447 -3.92879,-10.76103 -4.58283,-5.25297 -5.8216,-8.57052 -4.76753,-12.768 1.45719,-5.80288 5.1153,-8.36945 11.90636,-8.35358 2.36841,0.005 5.01105,0.39406 5.87256,0.86334 5.45555,2.97182 2.95809,12.0988 -3.31066,12.0988 -3.39498,0 -3.91523,-2.84418 -0.99961,-5.46453 2.30346,-2.07019 2.15386,-3.67692 -0.40676,-4.3688 -2.1452,-0.5796 -4.78346,0.79092 -5.99251,3.11298 -1.36406,2.61976 -0.33766,4.50732 4.89482,9.00173 3.17716,2.729 4.69497,4.58234 5.47788,6.6888 1.12664,3.0312 0.92667,6.77266 -0.4693,8.78118 -0.39151,0.56327 0.23479,0.10248 1.39177,-1.02412 2.64612,-2.57654 6.1953,-8.23757 8.79547,-14.02895 2.43744,-5.42903 6.9788,-10.55563 11.24992,-12.69977 5.59959,-2.811 13.70116,-1.88665 15.51938,1.77069 0.35915,0.72245 0.65301,2.73994 0.65301,4.48329 0,2.59309 -0.33727,3.53285 -1.85386,5.16548 -1.99603,2.14879 -2.87091,2.36433 -5.39827,1.32987 -2.40469,-0.98419 -2.25408,-4.10281 0.27581,-5.71163 1.42854,-0.90844 1.90263,-1.71066 1.90263,-3.21956 0,-1.78504 -0.21615,-2.00962 -1.93413,-2.00962 -3.73234,0 -7.45436,3.39803 -11.21766,10.24118 -1.6452,2.9916 -3.33771,9.09688 -3.33771,12.03984 0,6.0041 4.22207,8.6195 9.83722,6.09379 4.91999,-2.21301 12.20406,-11.86583 16.29286,-21.59122 1.56721,-3.72766 1.57503,-3.82836 0.41777,-5.36692 -1.54595,-2.05525 -1.55661,-6.29952 -0.0195,-7.79693 1.17737,-1.14706 3.62476,-1.46852 5.44754,-0.71551 0.62897,0.25984 1.00319,1.23907 1.00319,2.62516 0,2.34972 1.26218,3.99475 3.67215,4.78593 1.13002,0.37099 2.01028,-0.0658 3.96565,-1.96747 2.24083,-2.17939 2.89114,-2.44433 5.99957,-2.44433 1.91749,0 3.48635,0.149 3.48635,0.33112 0,0.1821 -0.85565,1.82812 -1.90142,3.65782 -4.70186,8.22627 -9.53113,21.87545 -8.63214,24.39746 1.24846,3.50239 7.38441,-2.62357 12.43266,-12.41244 4.15918,-8.06486 7.4113,-12.08063 11.66053,-14.39867 2.66091,-1.45155 3.81071,-1.6758 7.45618,-1.45404 3.6511,0.22209 4.58746,0.54819 6.12385,2.13282 1.78255,1.83845 1.83279,1.84797 2.92105,0.55343 1.67142,-1.98822 4.3033,-2.91411 7.61297,-2.67828 l 2.97751,0.21217 -1.69195,2.38959 c -3.53654,4.99478 -9.1513,19.93899 -9.1513,24.35706 0,4.7317 4.4804,1.89041 9.33976,-5.92293 2.15373,-3.46291 7.78394,-15.30517 7.78394,-16.37224 0,-0.38301 -1.14159,-0.69639 -2.53684,-0.69639 -2.54909,0 -2.8626,-0.34 -2.1519,-2.33376 0.28691,-0.80493 1.29646,-1.08464 3.96384,-1.09833 l 3.57884,-0.0184 1.90201,-4.59018 c 1.08002,-2.60656 3.13553,-5.95287 4.75657,-7.74356 2.47726,-2.73654 3.30454,-3.2149 6.25826,-3.61851 1.87199,-0.2558 3.54696,-0.31083 3.72209,-0.12218 0.17516,0.18854 -0.69271,1.61451 -1.92856,3.16882 -1.95772,2.46214 -6.7827,11.37574 -6.7827,12.53017 0,0.22674 1.85505,0.41225 4.12235,0.41225 4.32647,0 4.87373,0.42186 2.96259,2.28378 -0.80704,0.78623 -2.31335,1.12993 -4.95219,1.12993 l -3.79239,0 -2.64237,8.02226 c -4.56491,13.85916 -4.89575,17.23934 -1.68728,17.23934 2.29195,0 6.40686,-4.8432 9.80858,-11.54446 3.82221,-7.52968 6.46064,-11.23638 9.6699,-13.58508 3.70493,-2.71149 6.3134,-3.54577 11.086,-3.54577 3.80707,0 4.24089,0.16118 6.24748,2.32133 1.66452,1.79187 2.15633,2.88965 2.15633,4.81312 0,2.98696 -1.42873,6.19934 -3.21483,7.2284 -1.94102,1.11829 -4.9873,0.13974 -5.84051,-1.87612 -0.64069,-1.51379 -0.5394,-1.8794 0.83338,-3.00827 2.98315,-2.4531 3.21999,-2.78576 3.02608,-4.25071 -0.45331,-3.42482 -5.56571,-1.89249 -9.42234,2.82417 -3.95505,4.83702 -6.55496,11.14866 -6.84158,16.60874 -0.22121,4.21482 -0.10248,4.76042 1.38402,6.36069 2.10282,2.26376 5.16531,2.29591 9.19694,0.0966 6.09863,-3.32688 11.99102,-12.49192 16.33108,-25.40139 8.98667,-26.73067 15.85896,-37.12284 24.54923,-37.12284 5.62615,0 6.29449,4.32575 2.05172,13.2793 -1.2545,2.64742 -4.12868,7.42497 -6.38701,10.6168 -2.25832,3.19183 -4.6668,6.60471 -5.35215,7.58414 l -1.24609,1.78085 2.36467,-1.2595 c 3.62448,-1.9305 8.00881,-2.37636 9.94411,-1.01125 2.42245,1.70871 2.12503,5.27241 -1.23297,14.77352 -3.45742,9.78244 -4.12908,13.42082 -2.59449,14.05476 2.68782,1.11034 7.02722,-3.89017 11.47417,-13.22229 2.87108,-6.02509 6.43572,-10.50714 10.29082,-12.93926 2.32189,-1.46486 3.91495,-1.88195 8.08848,-2.11779 5.00484,-0.2828 5.27184,-0.22119 7.21533,1.66422 1.29406,1.25538 2.14897,2.84427 2.3827,4.42823 0.7966,5.39893 -3.62585,10.26102 -7.31338,8.04037 -2.51343,-1.51363 -2.42629,-3.49129 0.25072,-5.68942 3.13859,-2.57709 2.89635,-4.73315 -0.56602,-5.03865 -2.27465,-0.20071 -2.73669,0.0874 -6.02503,3.7551 -9.72371,10.8459 -10.67395,26.40414 -1.54501,25.29641 6.01444,-0.72977 11.45934,-6.36611 17.52072,-18.13667 3.47115,-6.74059 7.73851,-11.78914 11.71791,-13.86297 4.05529,-2.11335 10.79457,-1.62852 13.30138,0.9569 l 1.78967,1.84586 1.70303,-1.83336 c 1.42697,-1.53619 2.38905,-1.88039 5.93527,-2.12347 l 4.23223,-0.29012 -1.6095,2.30484 c -3.89884,5.58324 -9.3584,19.89644 -9.3584,24.53476 0,2.31631 0.19387,2.6903 1.39465,2.6903 2.44584,0 7.13753,-6.259 10.89572,-14.53557 l 3.44936,-7.59645 -1.21066,-1.65686 c -1.57188,-2.15128 -1.59903,-6.34464 -0.0508,-7.85296 1.17737,-1.14705 3.62477,-1.4685 5.44754,-0.71552 0.62896,0.25983 1.00318,1.23908 1.00318,2.62515 0,2.34974 1.26218,3.99476 3.67216,4.78594 1.13003,0.37099 2.01028,-0.0658 3.96565,-1.96748 2.24085,-2.17937 2.89115,-2.4443 5.9996,-2.4443 1.9175,0 3.48633,0.149 3.48633,0.33112 0,0.18209 -0.85564,1.8281 -1.90141,3.65778 -4.70187,8.22628 -9.53114,21.87549 -8.63214,24.39748 1.24845,3.50239 7.3844,-2.62355 12.43266,-12.41242 6.099,-11.8263 10.93013,-15.97396 18.60615,-15.97396 3.09761,0 4.43954,0.32315 5.67046,1.3655 0.8869,0.75101 1.7539,1.36548 1.92668,1.36548 0.17276,0 2.36749,-5.20259 4.87714,-11.56131 2.50966,-6.3587 5.03455,-12.00964 5.61085,-12.55761 1.11604,-1.06116 10.24389,-1.94713 10.24389,-0.99429 0,0.2939 -0.25565,0.53437 -0.56809,0.53437 -1.56327,0 -8.07411,13.42401 -12.52851,25.8312 -2.84797,7.93268 -5.93785,19.52306 -5.92002,22.20643 0.0182,2.75428 0.87204,3.41929 2.91861,2.27342 2.52584,-1.4142 4.07145,-3.35464 7.68403,-9.64682 3.37994,-5.88697 4.60874,-6.998 4.60874,-4.16706 0,3.76001 -6.03848,13.81225 -11.43451,19.03499 -7.25576,7.02279 -12.75167,4.13312 -11.76941,-6.18814 0.22331,-2.34612 0.58114,-4.80718 0.79523,-5.46906 0.2141,-0.66185 -0.82079,0.64005 -2.29969,2.8931 -5.65287,8.61185 -9.73269,12.04361 -14.40844,12.11971 -4.59742,0.075 -6.53295,-3.08338 -5.96318,-9.73009 0.13134,-1.53183 -0.0456,-1.42681 -1.72525,1.0241 -2.01548,2.94098 -5.2008,6.27907 -7.71952,8.08977 -2.24746,1.61569 -6.50509,1.47472 -7.96659,-0.26378 -2.78918,-3.31786 -1.53502,-15.26239 2.57099,-24.48584 1.20325,-2.70287 1.83533,-4.67941 1.40463,-4.39234 -0.43068,0.2871 -1.88136,0.68635 -3.22373,0.88728 -2.37128,0.35492 -2.54935,0.58221 -6.2627,7.99346 -4.4965,8.97435 -9.35483,16.07521 -13.1156,19.16962 -2.09915,1.72716 -3.31506,2.2189 -5.4868,2.2189 -4.00951,0 -5.04423,-1.90563 -4.91706,-9.05558 0.0529,-2.97166 0.002,-5.299 -0.11151,-5.17186 -0.11429,0.12715 -1.5148,2.14627 -3.11244,4.48694 -4.75996,6.97382 -10.13369,10.31603 -14.4973,9.01666 -2.55445,-0.76064 -3.61265,-2.51967 -4.08194,-6.78532 l -0.36397,-3.30847 -1.6616,2.1542 c -4.75498,6.1646 -9.31263,8.66343 -15.80148,8.66343 -2.9085,0 -5.47595,-0.39906 -6.74793,-1.04886 -2.54234,-1.29874 -4.79774,-5.46626 -4.79774,-8.86528 l 0,-2.55943 -1.37185,1.96963 c -2.43226,3.49211 -7.14207,8.53568 -8.9026,9.53339 -1.81301,1.02745 -6.05793,1.2905 -7.22999,0.44805 -3.44561,-2.47676 -2.25532,-12.77181 3.0036,-25.97925 2.51302,-6.31131 1.1293,-7.79617 -4.00111,-4.29361 -5.08883,3.47421 -8.41584,9.68417 -12.20086,22.77311 l -2.31982,8.02225 -4.41768,0 c -2.42972,0 -4.41767,-0.14661 -4.41767,-0.3258 0,-0.17916 0.6823,-2.27717 1.51621,-4.66216 l 1.5162,-4.33641 -3.07031,3.2194 c -4.52669,4.74656 -7.56402,6.1055 -13.63932,6.10241 -7.34238,-0.003 -10.53829,-2.45389 -11.55381,-8.8579 l -0.45875,-2.89291 -2.12574,3.18656 c -1.16914,1.7526 -3.54832,4.39709 -5.28706,5.87666 -2.57968,2.19518 -3.66753,2.69015 -5.91235,2.69015 -2.24234,0 -3.00712,-0.34713 -4.13646,-1.87756 -1.24011,-1.68049 -1.35129,-2.45076 -1.05917,-7.33951 0.17949,-3.00407 0.5432,-6.07642 0.80824,-6.82743 0.26503,-0.75103 -0.97681,0.95877 -2.75964,3.79962 -3.63698,5.79524 -8.75051,11.29345 -11.09163,11.92599 -0.85392,0.23072 -2.51306,0.32006 -3.68705,0.1985 -3.03517,-0.31423 -3.81707,-2.32496 -3.60438,-9.26896 0.095,-3.09882 0.14865,-5.63352 0.11942,-5.63264 -0.0291,6.8e-4 -1.14288,1.70495 -2.47481,3.78685 -8.26912,12.92519 -19.24936,14.72026 -19.4934,3.1868 -0.0711,-3.35827 -0.12054,-3.45625 -1.01398,-2.00825 -1.55787,2.52478 -4.72273,6.01277 -7.34343,8.09312 -3.09201,2.45449 -7.16311,2.71449 -8.96386,0.57239 -2.78634,-3.3145 -1.53537,-15.26161 2.56177,-24.46511 1.80578,-4.05642 1.97184,-4.77455 0.97067,-4.19771 -0.66429,0.38271 -2.06753,0.69585 -3.11834,0.69585 -1.77178,0 -2.17198,0.51633 -5.51045,7.10941 -4.92509,9.72654 -9.35233,15.87227 -13.80773,19.16744 -3.57752,2.6459 -3.90365,2.74679 -9.51316,2.94268 -4.97727,0.1738 -6.10895,6.7e-4 -7.90671,-1.20891 -2.18625,-1.4711 -4.52284,-5.98491 -4.54723,-8.78436 -0.012,-1.37363 -0.36696,-1.11673 -2.53285,1.83302 -5.31532,7.23898 -9.63797,9.57617 -17.77585,9.61112 -3.97106,0.0171 -6.08719,-0.31723 -8.03502,-1.26931 z m 102.82233,-13.21198 c 5.03767,-5.64324 11.84564,-17.42511 11.03129,-19.09077 -0.72993,-1.49301 -4.31846,-1.59759 -6.83064,-0.19909 -4.36306,2.42891 -10.01426,11.48506 -11.43972,18.33237 -0.8103,3.89255 -0.35568,5.25072 1.75758,5.25072 1.19466,0 2.70485,-1.1828 5.48149,-4.29323 z m 157.59774,0.35971 c 4.78331,-5.34634 11.87086,-17.71789 11.00427,-19.20825 -1.12129,-1.92832 -5.07866,-1.76196 -7.88478,0.3315 -4.49314,3.35205 -9.57821,12.36553 -10.43133,18.48996 -0.48355,3.47133 -0.0675,4.32031 2.11702,4.32031 1.21014,0 2.65307,-1.09258 5.19482,-3.93352 z m 65.5082,2.69014 c 0.95638,-0.67892 2.9994,-2.98196 4.54009,-5.11788 3.11282,-4.3155 9.45295,-17.0987 8.81898,-17.78121 -0.72886,-0.78461 -4.65722,-0.45815 -6.4419,0.53536 -5.60099,3.11804 -13.36777,18.01451 -11.75356,22.54303 0.50638,1.42059 2.69709,1.33939 4.83639,-0.1793 z M 431.38285,404.1556 c 4.4776,-6.96307 7.61989,-13.43382 8.11337,-16.70747 0.8097,-5.37149 -3.57104,-1.29032 -7.66587,7.14164 -2.249,4.63107 -8.00762,18.8398 -7.97772,19.68406 0.0283,0.80055 3.56315,-3.94906 7.53022,-10.11823 z"
       id="path4439"
       inkscape:connector-curvature="0" />
  </g>
</svg>
